<?xml version="1.0" encoding="UTF-8" standalone="no"?>
<svg
   viewBox="0 0 348 348"
   fill="none"
   version="1.1"
   id="svg9"
   sodipodi:docname="Answering Can Be Fun.svg"
   inkscape:version="1.4.3 (0d15f75, 2025-12-25)"
   xmlns:inkscape="http://www.inkscape.org/namespaces/inkscape"
   xmlns:sodipodi="http://sodipodi.sourceforge.net/DTD/sodipodi-0.dtd"
   xmlns="http://www.w3.org/2000/svg"
   xmlns:svg="http://www.w3.org/2000/svg">
  <defs
     id="defs9" />
  <sodipodi:namedview
     id="namedview9"
     pagecolor="#ffffff"
     bordercolor="#000000"
     borderopacity="0.25"
     inkscape:showpageshadow="2"
     inkscape:pageopacity="0.0"
     inkscape:pagecheckerboard="0"
     inkscape:deskcolor="#d1d1d1"
     inkscape:zoom="2.25"
     inkscape:cx="174"
     inkscape:cy="174"
     inkscape:window-width="1920"
     inkscape:window-height="1001"
     inkscape:window-x="-9"
     inkscape:window-y="-9"
     inkscape:window-maximized="1"
     inkscape:current-layer="svg9" />
  <path
     d="M5.079 5.776h336.913v337.67H5.08z"
     stroke-width="2"
     stroke="#000"
     id="path1" />
  <path
     d="M282.734 40.554c0-8.376 6.966-15.165 15.56-15.165 4.126 0 8.084 1.597 11.001 4.441 2.918 2.844 4.558 6.702 4.558 10.724 0 8.376-6.966 15.165-15.56 15.165-8.593 0-15.559-6.79-15.559-15.165z"
     stroke-width="2"
     stroke="#000"
     id="path2" />
  <path
     d="M34.857 27.048h214.156v26.845H34.858z"
     stroke="#000"
     stroke-width=".45"
     id="path3"
     style="stroke-width:1;stroke-dasharray:none" />
  <path
     d="M96.735 76.742h156.872v26.91H96.735z"
     stroke="#000"
     stroke-width=".385"
     id="path4"
     style="stroke-width:1;stroke-dasharray:none" />
  <path
     d="M273.92 89.284c0-4.918 4.454-8.905 9.95-8.905 2.64 0 5.17.938 7.037 2.608 1.866 1.67 2.915 3.936 2.915 6.297 0 4.919-4.456 8.905-9.952 8.905-5.496 0-9.95-3.987-9.95-8.905zM55.738 89.415c0-4.919 4.455-8.905 9.951-8.905 2.64 0 5.17.937 7.036 2.607 1.866 1.67 2.915 3.936 2.915 6.298 0 4.918-4.455 8.905-9.951 8.905s-9.951-3.987-9.951-8.905zM25.24 89.154c0-4.919 4.454-8.905 9.95-8.905 2.64 0 5.171.938 7.037 2.608 1.866 1.67 2.915 3.935 2.915 6.297 0 4.918-4.455 8.905-9.952 8.905-5.496 0-9.95-3.987-9.95-8.905zM303.375 89.675c0-4.918 4.455-8.905 9.952-8.905 2.638 0 5.17.938 7.035 2.608 1.867 1.67 2.915 3.936 2.915 6.297 0 4.919-4.455 8.905-9.951 8.905s-9.951-3.987-9.951-8.905z"
     stroke="#000"
     stroke-width="1.226"
     id="path5" />
  <path
     d="M47.63 212.451c0-24.442 20.514-44.253 45.822-44.253 12.15 0 23.806 4.66 32.397 12.96 8.593 8.298 13.422 19.557 13.422 31.293 0 24.442-20.514 44.254-45.822 44.254-25.305 0-45.82-19.814-45.82-44.254z"
     stroke="#000"
     stroke-width="5.863"
     id="path6" />
  <path
     d="M201.172 165.279h35.322v33.087h-35.322zM236.494 165.279h35.321v33.087h-35.321zM271.815 165.279h35.322v33.087h-35.322zM201.172 198.366h35.322v33.087h-35.321zM236.494 198.366h35.321v33.087h-35.321zM236.494 264.54h35.321v33.088h-35.321z"
     stroke="#000"
     stroke-width=".203"
     id="path7"
     style="stroke-width:1.5;stroke-dasharray:none" />
  <path
     d="M201.172 231.453h35.322v33.088h-35.321zM236.494 231.453h35.321v33.088h-35.321zM271.815 231.453h35.322v33.088h-35.322z"
     stroke="#000"
     stroke-width=".203"
     id="path8"
     style="stroke-width:1.5;stroke-dasharray:none" />
  <path
     d="M271.815 198.366h35.322v33.087h-35.322z"
     stroke="#000"
     stroke-width=".203"
     id="path9"
     style="stroke-width:1.5;stroke-dasharray:none" />
</svg>
